# xmcd
#
# Track frame offsets: 
#        150
#        17058
#        34127
#        54573
#        69181
#        83925
#        89367
#        96194
#        110925
#        125328
#        139588
#        184373
#        197660
#        213873
#        216481
#        226927
#        237718
#        249877
#        262765
#        267236
#        286485
#        290009
#        301766
#        313365
#        321624
#
# Disc length: 4435 seconds
#
# Revision: 0
# Processed by: cddbd v1.5.2PL0 Copyright (c) Steve Scherf et al.
# Submitted via: ExactAudioCopy v1.0b1
#
DISCID=7f115119
DTITLE=Devo  - Unreleased Demos Volume 2  
DYEAR=1900
DGENRE=
TTITLE0=Can U Take It (Extended Edit)
TTITLE1=Secret Agent Man (Mark Vox)
TTITLE2=Smart Patrol (Version 2)
TTITLE3=Shrivel Up
TTITLE4=Uncontrollable Urge (Version 2)
TTITLE5=Devo Corporate Anthem
TTITLE6=Hobknob With The Snobs
TTITLE7=Clockout
TTITLE8=Blockhead
TTITLE9=U Got Me Bugged (Instrumental)
TTITLE10=Hey Hey My My (Long Version)
TTITLE11=How Many Ropes (Paranoia)
TTITLE12=It Takes A Worried Man (Video Edit With Booji Boy)
TTITLE13=Smoezart
TTITLE14=Softcore Mutations (Lounge Version 1)
TTITLE15=Race Of Doom
TTITLE16=Red Shark
TTITLE17=Toil Is Stupid
TTITLE18=Death Of Booji Boy (Instrumental)
TTITLE19=Dr. Detroit (music bed number one)
TTITLE20=Unkown Instrumental
TTITLE21=Doesn't Matter To Me
TTITLE22=Tank Girl U Want (Film Version)
TTITLE23=Slaughterhouse Rock Theme
TTITLE24=Scared By Your Love
EXTD=
EXTT0=
EXTT1=
EXTT2=
EXTT3=
EXTT4=
EXTT5=
EXTT6=
EXTT7=
EXTT8=
EXTT9=
EXTT10=
EXTT11=
EXTT12=
EXTT13=
EXTT14=
EXTT15=
EXTT16=
EXTT17=
EXTT18=
EXTT19=
EXTT20=
EXTT21=
EXTT22=
EXTT23=
EXTT24=
PLAYORDER=
